<svg xmlns="http://www.w3.org/2000/svg" xmlns:xlink="http://www.w3.org/1999/xlink" viewBox="0 0 28 28" width="28" height="28" preserveAspectRatio="xMidYMid meet" style="width: 100%; height: 100%; transform: translate3d(0px, 0px, 0px); content-visibility: visible;"><defs><clipPath id="__lottie_element_2"><rect width="28" height="28" x="0" y="0"></rect></clipPath></defs><g clip-path="url(#__lottie_element_2)"><g style="display: block;" transform="matrix(1,0,0,1,0,0)" opacity="1"><g class="wallet-lottie_fill-color" opacity="1" transform="matrix(4.563953876495361,-2.634999990463257,2.634999990463257,4.563953876495361,5.442365646362305,4.032382488250732)"><path fill="rgb(0,0,0)" fill-opacity="1" d=" M2.24399995803833,1.8880000114440918 C2.24399995803833,1.8880000114440918 1.7389999628067017,1.6180000305175781 1.7389999628067017,1.6180000305175781 C1.6740000247955322,1.7239999771118164 1.5140000581741333,1.5640000104904175 1.4140000343322754,1.597000002861023 C1.305999994277954,1.6330000162124634 1.2350000143051147,1.6039999723434448 1.1920000314712524,1.5850000381469727 C1.1920000314712524,1.5850000381469727 1.5980000495910645,1.5440000295639038 1.5980000495910645,1.5440000295639038 C1.8960000276565552,1.2289999723434448 2.0169999599456787,2.069999933242798 1.4390000104904175,1.6239999532699585 C1.4390000104904175,1.6239999532699585 -0.006000000052154064,0.5220000147819519 -0.006000000052154064,0.5220000147819519 C-0.12600000202655792,0.4699999988079071 -0.2619999945163727,0.4350000023841858 -0.1679999977350235,0.39899998903274536 C-0.03700000047683716,0.3490000069141388 0.11599999666213989,0.3569999933242798 0.24500000476837158,0.4359999895095825 C0.24500000476837158,0.4359999895095825 2.061000108718872,1.4759999513626099 2.061000108718872,1.4759999513626099 C2.2829999923706055,1.6109999418258667 2.378999948501587,1.6660000085830688 2.24399995803833,1.8880000114440918z"></path></g><g class="wallet-lottie_fill-color" opacity="1" transform="matrix(1,0,0,1,14.738000869750977,14)"><path fill="rgb(0,0,0)" fill-opacity="1" d=" M6.01200008392334,-1.1100000143051147 C5.39900016784668,-1.1100000143051147 4.9019999504089355,-0.6129999756813049 4.9019999504089355,0 C4.9019999504089355,0.6129999756813049 5.39900016784668,1.1109999418258667 6.01200008392334,1.1109999418258667 C6.625,1.1109999418258667 7.123000144958496,0.6129999756813049 7.123000144958496,0 C7.123000144958496,-0.6129999756813049 6.625,-1.1100000143051147 6.01200008392334,-1.1100000143051147z M7.938000202178955,-4.175000190734863 C8.918000221252441,-4.175000190734863 9.407999992370605,-4.175000190734863 9.781999588012695,-3.9839999675750732 C10.111000061035156,-3.815999984741211 10.378999710083008,-3.5490000247955322 10.54699993133545,-3.2200000286102295 C10.73799991607666,-2.8459999561309814 10.73799991607666,-2.3550000190734863 10.73799991607666,-1.375 C10.73799991607666,-1.375 10.73799991607666,1.375 10.73799991607666,1.375 C10.73799991607666,2.3550000190734863 10.73799991607666,2.8459999561309814 10.54699993133545,3.2200000286102295 C10.378999710083008,3.5490000247955322 10.111000061035156,3.815999984741211 9.781999588012695,3.9839999675750732 C9.407999992370605,4.175000190734863 8.918000221252441,4.175000190734863 7.938000202178955,4.175000190734863 C7.938000202178955,4.175000190734863 5.888000011444092,4.175000190734863 5.888000011444092,4.175000190734863 C4.9079999923706055,4.175000190734863 4.416999816894531,4.175000190734863 4.043000221252441,3.9839999675750732 C3.7139999866485596,3.815999984741211 3.447000026702881,3.5490000247955322 3.2790000438690186,3.2200000286102295 C3.0880000591278076,2.8459999561309814 3.0880000591278076,2.3550000190734863 3.0880000591278076,1.375 C3.0880000591278076,1.375 3.0880000591278076,-1.375 3.0880000591278076,-1.375 C3.0880000591278076,-2.3550000190734863 3.0880000591278076,-2.8459999561309814 3.2790000438690186,-3.2200000286102295 C3.447000026702881,-3.5490000247955322 3.7139999866485596,-3.815999984741211 4.043000221252441,-3.9839999675750732 C4.416999816894531,-4.175000190734863 4.9079999923706055,-4.175000190734863 5.888000011444092,-4.175000190734863 C5.888000011444092,-4.175000190734863 7.938000202178955,-4.175000190734863 7.938000202178955,-4.175000190734863z"></path></g><g class="wallet-lottie_fill-color" opacity="1" transform="matrix(1,0,0,1,14.73799991607666,14)"><path fill="rgb(0,0,0)" fill-opacity="1" d=" M2.861999988555908,-9.5 C5.1020002365112305,-9.5 6.2220001220703125,-9.5 7.078000068664551,-9.064000129699707 C7.830999851226807,-8.680999755859375 8.442999839782715,-8.069000244140625 8.826000213623047,-7.315999984741211 C9.038999557495117,-6.8979997634887695 9.145000457763672,-6.415999889373779 9.201000213623047,-5.771999835968018 C9.125,-5.781000137329102 9.050000190734863,-5.791999816894531 8.972000122070312,-5.797999858856201 C8.520999908447266,-5.835000038146973 7.9670000076293945,-5.835000038146973 7.296000003814697,-5.835000038146973 C7.296000003814697,-5.835000038146973 6.228000164031982,-5.835000038146973 6.228000164031982,-5.835000038146973 C5.557000160217285,-5.835000038146973 5.002999782562256,-5.835000038146973 4.552000045776367,-5.797999858856201 C4.084000110626221,-5.760000228881836 3.6530001163482666,-5.677999973297119 3.247999906539917,-5.4720001220703125 C2.619999885559082,-5.1519999504089355 2.109999895095825,-4.642000198364258 1.7899999618530273,-4.013999938964844 C1.5839999914169312,-3.6089999675750732 1.5019999742507935,-3.177999973297119 1.4639999866485596,-2.7100000381469727 C1.4270000457763672,-2.259000062942505 1.4270000457763672,-1.7050000429153442 1.4270000457763672,-1.034000039100647 C1.4270000457763672,-1.034000039100647 1.4270000457763672,1.034000039100647 1.4270000457763672,1.034000039100647 C1.4270000457763672,1.7050000429153442 1.4270000457763672,2.259000062942505 1.4639999866485596,2.7100000381469727 C1.5019999742507935,3.177999973297119 1.5839999914169312,3.6089999675750732 1.7899999618530273,4.013999938964844 C2.109999895095825,4.642000198364258 2.619999885559082,5.1519999504089355 3.247999906539917,5.4720001220703125 C3.6530001163482666,5.677999973297119 4.084000110626221,5.760000228881836 4.552000045776367,5.797999858856201 C5.002999782562256,5.835000038146973 5.557000160217285,5.835000038146973 6.228000164031982,5.835000038146973 C6.228000164031982,5.835000038146973 7.296000003814697,5.835000038146973 7.296000003814697,5.835000038146973 C7.9670000076293945,5.835000038146973 8.520999908447266,5.835000038146973 8.972000122070312,5.797999858856201 C9.050000190734863,5.791999816894531 9.125,5.78000020980835 9.201000213623047,5.770999908447266 C9.145000457763672,6.415999889373779 9.038999557495117,6.8979997634887695 8.826000213623047,7.315999984741211 C8.442999839782715,8.069000244140625 7.830999851226807,8.680999755859375 7.078000068664551,9.064000129699707 C6.2220001220703125,9.5 5.1020002365112305,9.5 2.861999988555908,9.5 C2.861999988555908,9.5 -4.3379998207092285,9.5 -4.3379998207092285,9.5 C-6.578000068664551,9.5 -7.697999954223633,9.5 -8.553999900817871,9.064000129699707 C-9.307000160217285,8.680999755859375 -9.920000076293945,8.069000244140625 -10.303000450134277,7.315999984741211 C-10.73900032043457,6.460000038146973 -10.73799991607666,5.340000152587891 -10.73799991607666,3.0999999046325684 C-10.73799991607666,3.0999999046325684 -10.73799991607666,-3.0999999046325684 -10.73799991607666,-3.0999999046325684 C-10.73799991607666,-5.340000152587891 -10.73900032043457,-6.460000038146973 -10.303000450134277,-7.315999984741211 C-9.920000076293945,-8.069000244140625 -9.307000160217285,-8.680999755859375 -8.553999900817871,-9.064000129699707 C-7.697999954223633,-9.5 -6.578000068664551,-9.5 -4.3379998207092285,-9.5 C-4.3379998207092285,-9.5 2.861999988555908,-9.5 2.861999988555908,-9.5z M8.043000221252441,-3.0460000038146973 C7.732999801635742,-3.0460000038146973 7.48199987411499,-2.7939999103546143 7.48199987411499,-2.4839999675750732 C7.48199987411499,-2.1740000247955322 7.732999801635742,-1.9220000505447388 8.043000221252441,-1.9220000505447388 C8.352999687194824,-1.9220000505447388 8.605999946594238,-2.1740000247955322 8.605999946594238,-2.4839999675750732 C8.605999946594238,-2.7939999103546143 8.352999687194824,-3.0460000038146973 8.043000221252441,-3.0460000038146973z"></path></g></g></g></svg>